<svg data-name="Layer 1" xmlns="http://www.w3.org/2000/svg" viewBox="0 0 2000 727.27"><defs><linearGradient id="a" x1="346.2" y1="552.27" x2="346.2" y2="175.58" gradientUnits="userSpaceOnUse"><stop offset="0" stop-color="#1ba94c"/><stop offset="1" stop-color="#32c766"/></linearGradient></defs><path d="M1451.19 440.5q-19.47-31.81-39-63.58c-1.11-1.81-2.06-3.73-3.29-6 2.9-.87 5-1.46 7.16-2.17 19.54-6.57 31.58-22.68 32.2-43 .73-24.12-11.9-41-35.37-46.84a75.66 75.66 0 0 0-16.26-2.5c-17.52-.44-35-.42-52.58-.52-10.19-.05-10.38.16-10.38 10.08v155.35c0 1.84 0 3.68.19 5.5.23 2.54 1.54 4.26 4.25 4.3 5.5.08 11 .07 16.51 0 2.67 0 4.12-1.61 4.49-4.11a34.47 34.47 0 0 0 .14-4.88V373.1c6.14 0 11.4.18 16.64-.06 3.49-.16 5.62 1.06 7.34 4.16 4.37 7.82 9.06 15.47 13.62 23.19 9 15.25 18.13 30.48 27.07 45.79 1.9 3.25 3.95 5.38 8.12 5.07 4.46-.33 9 .05 13.45-.12 2.89-.1 6.46 1.24 8.21-2.34 1.64-3.32-.97-5.79-2.51-8.29zm-58.38-90.93c-10.3.82-20.72.32-31.09.34a9 9 0 0 1-2.06-.62v-49.17c.28-.25.57-.75.88-.75 13.4-.32 26.82-1.25 40.14 1.09a38.55 38.55 0 0 1 5.89 1.51c13.89 4.79 20.18 19.1 14.39 32.62-2 4.7-5.36 8.45-10 10.17-5.89 2.15-11.96 4.32-18.15 4.81zm-373 51.5c-.09 2-.25 3.93-.26 5.9v37.33c0 6-.83 6.79-6.62 6.89-4.08.08-8.16.13-12.24 0s-5.23-1.29-5.48-5.59c-.08-1.22 0-2.45 0-3.68v-156c0-1.42-.07-2.86 0-4.28.26-3.84 1.41-5.25 5.11-5.42q7-.31 14.08 0c3.82.17 4.88 1.44 5.13 5.34.11 1.63 0 3.27 0 4.9v81.94c0 2.16.18 4.32.33 7.66 2.19-1.82 3.58-2.83 4.8-4 12.29-11.94 24.6-23.86 36.76-35.93a10.81 10.81 0 0 1 8.62-3.57c5.91.21 11.83 0 17.75.07 2.41 0 5.11-.39 6.13 2.7.94 2.83-.86 4.55-2.73 6.25q-22.25 20.11-44.44 40.27c-1.79 1.63-3.55 3.32-5.59 5.23 1.25 1.43 2.21 2.7 3.34 3.8q25.35 24.82 50.74 49.63c1 1 2.34 1.84 3 3 .78 1.49 1.73 3.57 1.23 4.85s-2.62 2.46-4.19 2.7a47.67 47.67 0 0 1-8.54.14c-5.49-.13-11.54 1.06-16.28-.91-4.53-1.88-7.73-7-11.42-10.81q-16.44-16.89-32.79-33.84c-1.67-1.73-3.39-3.41-5.09-5.11zm725.25.17v11.57c0 10.6.06 21.2 0 31.81 0 5.4-1.13 6.45-6.42 6.57q-5.82.12-11.62 0c-5.36-.12-6.25-1.06-6.48-6.54V286.28c0-10 .13-10.16 10.32-10.16 3.06 0 6.13-.14 9.17.07 3.38.24 4.69 1.62 5 4.95.16 1.62.06 3.26.06 4.9v90.14c2.66-2.28 4.32-3.55 5.81-5 11.68-11.38 23.42-22.71 34.94-34.25 3.1-3.09 6.23-4.77 10.73-4.45 5.28.38 10.6.06 15.9.1 2.59 0 5.56-.6 6.85 2.63s-1.2 4.87-3.12 6.62q-22.18 20.16-44.4 40.28c-1.65 1.49-3.24 3-5.33 5 1.57 1.68 2.84 3.17 4.23 4.54q25.13 24.6 50.29 49.18c.88.85 2 1.57 2.54 2.61.71 1.54 1.65 3.59 1.15 4.92a5.4 5.4 0 0 1-4.11 2.67c-7.54.27-15.1.39-22.62-.06-2-.12-4.31-2.05-5.93-3.7-13.55-13.83-27-27.79-40.46-41.7-1.65-1.71-3.37-3.34-5.07-5zm-523.46-18.86c-2.07-30.49-23.24-50.91-51.2-52.56-24.3-1.43-43.32 7.6-56.36 28.32-7.55 12-10 25.37-8.67 39.3 2.33 24.82 14.5 42.91 37.93 52.43 13.47 5.47 27.45 5.36 41.41 1.68 12.45-3.28 22.41-10.46 30.59-20.24 3.62-4.33 3.44-6.14-.77-9.63-1.88-1.55-3.84-3-5.77-4.53-7.38-5.77-7.28-5.68-13.43 1.28-10.37 11.77-23.38 16.26-38.55 12.09-14.46-4-22.89-14-26.15-29.84 3.14-.16 5.52-.37 7.9-.37h72.76c1.63 0 3.27.07 4.89-.06 4.28-.34 5.33-1.23 5.56-5.64a103.62 103.62 0 0 0-.19-12.23zm-90.06-3.53a42 42 0 0 1 1.46-5.54c8.38-19.85 29.36-26.45 47.19-18.65 9.85 4.32 14.63 12.87 16.27 24.19zm-284.87 65c-.59-8.13-1.18-16.26-1.29-24.4-.2-15.3.13-30.6-.12-45.89-.37-22.7-12.33-37.9-34-42.44-18.74-3.93-36.48-.73-52.68 9.79a39.42 39.42 0 0 0-5.73 4.58c-3.11 3-3.21 4.54-.69 7.91 1.34 1.8 2.87 3.45 4.31 5.17 6.17 7.3 6.11 7.21 13.94 1.48 11.24-8.23 23.8-10.49 37.13-6.8 9.73 2.68 14.83 11.46 13 21.56-6.79.29-13.7.51-20.61.9-10.83.6-21.52 2.08-31.7 6-9.62 3.74-18 9.35-21.66 19.42-7.63 20.67 0 42.22 22.44 50.1 9.69 3.4 19.64 3.35 29.61 1.73 8.86-1.44 16.5-5.61 24.08-12.38.57 2.5.9 3.81 1.18 5.14 1 4.64 1.76 5.35 6.49 5.48 3.26.08 6.53.07 9.79 0 6.08-.12 6.91-1.26 6.46-7.39zm-66.78-13.1c-5.29-1.85-9.24-5-10.6-10.81-1.57-6.67.06-11.59 5.78-15.38a34.64 34.64 0 0 1 8.74-4.24c12-3.7 24.32-4.28 37.11-4.06 3.18 24.66-18.43 42.35-41.08 34.45zm788.35 13.67c-.69-7.5-1.4-15-1.51-22.56-.26-17.33.16-34.68-.28-52-.46-17.81-11-31.36-27.76-37.17-10.9-3.77-22.05-3.8-33.22-1.89a61.56 61.56 0 0 0-29.27 13.09c-5.2 4.28-5.34 6-1.18 11.06 1.67 2.05 3.37 4.1 5.12 6.08 3.84 4.36 5.16 4.54 9.57.83 9-7.61 19.45-10.62 31.18-10.12 11.26.47 22.08 6.15 21.9 22.68-2.25.23-4.22.52-6.2.62-5.5.29-11 .37-16.5.75-10.2.7-20.27 2.16-29.9 5.81-9 3.42-16.71 8.64-21.2 17.48-9.64 19-1.81 42.44 17.82 50.53 18.67 7.7 37.07 6.5 53.86-6 1.07-.79 2.27-1.42 3.72-2.33.44 1.87.74 3.24 1.09 4.61 1.24 4.83 1.67 5.22 6.62 5.34 3.46.08 6.94.09 10.4 0 5.18-.23 6.17-1.65 5.69-6.85zM1518 431.73a48.84 48.84 0 0 1-16.28-1.09c-6.45-1.44-10.53-5.83-11.3-12.82s2.48-11.74 8.46-14.82a40.61 40.61 0 0 1 7.31-3.05c11.67-3.3 23.63-3.88 36-3.85 3.15 14.12-5.83 33.36-24.19 35.63zm98.06-89.19c2.48-1.74 4.11-2.91 5.77-4 15-10 31.14-11.62 47.84-5.57 14.34 5.19 21.64 16.71 25 30.95a62.49 62.49 0 0 1 1.51 13.92c.15 21.81.06 43.62.06 65.42 0 1.43.37 3.09-.22 4.22-.75 1.44-2.24 3.39-3.53 3.48-5.47.39-11 .26-16.49.16a3.8 3.8 0 0 1-3.94-3.87c-.13-1.62-.1-3.25-.1-4.88 0-17.53.08-35.06 0-52.59a133 133 0 0 0-1.12-16.44c-1.23-9.15-4.74-17.14-14.37-20.15-10.14-3.18-19.81-2.07-28 5.31-6 5.4-9 12.52-10.42 20.29a79.81 79.81 0 0 0-1.13 13.37c-.13 17.12 0 34.24-.07 51.36 0 7.07-.63 7.65-7.66 7.71-3.47 0-6.93.07-10.4 0-5.11-.13-6.09-1.1-6.3-6-.06-1.63-.08-3.22-.08-4.85 0-3.56 0-58.33-.06-87.47 0-4.68-.62-9.36-.77-14-.15-5 .91-6.06 6-6.19 3.67-.1 7.34-.08 11 0 5.64.09 6.15.57 6.93 6.14.07.84.25 1.81.56 3.68zM929.43 454.42c-18-.35-33.75-5.75-46.41-18.84a57.42 57.42 0 0 1-15.66-31.86c-2.3-14.85-.9-29.28 6.38-42.74 9.64-17.81 24.89-27.51 44.61-30.62a63.5 63.5 0 0 1 36.42 4.83 47.53 47.53 0 0 1 17.88 13.51c3.09 3.81 2.87 5.72-.95 8.65-3.39 2.61-6.91 5-10.43 7.48-2.55 1.76-5 1.66-7-.95-8.71-11.49-20.55-14.15-33.84-11.25-13.73 3-22.5 11.92-26.57 25.21a46.19 46.19 0 0 0 1.83 32.85c10.9 25.05 45.31 27.52 59.11 10.14 3.5-4.4 4.62-4.25 9.15-1 2.66 1.89 5.27 3.85 7.85 5.84 4.69 3.64 5 5.68 1.12 10-7.41 8.24-16.38 14.12-27.24 16.59-5.28 1.13-10.81 1.44-16.25 2.16zm339.9-112.24c2-1.51 3.1-2.34 4.21-3.2 10.77-8.43 23-10.86 36.3-8.67 5.08.84 6.1 2.2 5.6 7.48-.33 3.44-.86 6.87-1.36 10.29-.87 5.91-2.23 6.65-8.12 6a53.56 53.56 0 0 0-13.32-.22c-8 1.11-13.7 5.89-17.43 13a46.21 46.21 0 0 0-5.1 21.79v53.2c0 1.42.09 2.86 0 4.27-.33 3.52-1.47 4.88-4.85 5-4.89.19-9.79.19-14.67 0-3.59-.14-4.54-1.23-4.91-4.92-.18-1.82-.09-3.66-.09-5.5v-65.42c0-11.61-.38-23.22-.65-34.83-.17-7.28.25-7.82 7.26-7.88 3.26 0 6.53-.06 9.79 0 5.33.1 5.71.45 6.78 5.76.11.99.23 1.96.56 3.85zM611.5 372.9v74c0 2.87-1.89 4.26-4.84 4.27h-15.91c-3 0-4.69-1.66-4.69-4.57V285.05c0-8.87.31-9.14 9.38-9.17H604c6.59.12 7.43.95 7.51 7.4v65h82.56v-64.7c.08-6.45.92-7.28 7.51-7.4 2.85-.05 5.71 0 8.56 0 9.07 0 9.38.3 9.38 9.18v161.53c0 2.9-1.72 4.54-4.69 4.57q-8 .06-15.91 0c-2.95 0-4.84-1.4-4.84-4.26v-74.31z" fill="#39424e"/><path d="M516.86 364.32A747.11 747.11 0 0 1 512 449.9a21.52 21.52 0 0 1-8.26 14.54c-.37.3-.76.57-1.15.84a740 740 0 0 1-70.72 46.36 760.79 760.79 0 0 1-76 38.36c-.37.19-.77.34-1.13.51a4.09 4.09 0 0 1-.42.2 21.63 21.63 0 0 1-16 0c-.49-.22-1-.42-1.5-.66a.07.07 0 0 1-.07 0 756 756 0 0 1-76.12-38.43 737 737 0 0 1-70.77-46.36c-.39-.27-.78-.54-1.15-.84a21.56 21.56 0 0 1-8.23-14.54 752.78 752.78 0 0 1-.1-170.45c.07-.79.15-1.57.27-2.36a21.53 21.53 0 0 1 6.88-12.5.13.13 0 0 1 .1-.08c.93-.71 1.86-1.4 2.8-2.06a755.91 755.91 0 0 1 147.67-85.14c.32-.15.66-.27 1-.42a20.19 20.19 0 0 1 14.06-.09.72.72 0 0 1 .27.09c.54.22 1.08.47 1.62.72a747.17 747.17 0 0 1 76.32 38.5 751.23 751.23 0 0 1 71 46.53c.79.55 1.57 1.13 2.36 1.75.05 0 .1.05.15.12a21.53 21.53 0 0 1 7 12.58c.12.79.19 1.57.27 2.36a750.39 750.39 0 0 1 4.71 84.89z" fill="url(#a)"/><path d="M420.64 436.74h-6.22V285a4.23 4.23 0 0 0-4.23-4.23h-31.58a4.23 4.23 0 0 0-4.23 4.23v58.72H318v-52.61h6.22a4.4 4.4 0 0 0 3-7.63L301 259.06a4.42 4.42 0 0 0-6 0l-26.24 24.42a4.4 4.4 0 0 0 3 7.63H278v151.7a4.24 4.24 0 0 0 4.23 4.24h31.57a4.24 4.24 0 0 0 4.23-4.24V384.1h56.35v52.64h-6.22a4.4 4.4 0 0 0-3 7.63l26.24 24.42a4.41 4.41 0 0 0 6 0l26.24-24.42a4.4 4.4 0 0 0-3-7.63z" fill="#fff"/><path fill="none" d="M-.5-.18h2001v727.64H-.5z"/></svg>